#N canvas 827 239 322 410 12;
#X obj 346 18 adc~;
#N canvas 0 0 450 250 (subpatch) 0;
#X array samplerL 96000 float 4;
#X coords 0 1 95999 -1 216 28 1;
#X restore 100 55 graph;
#X obj 346 63 tabwrite~ samplerL;
#X obj 6 55 bng 25 250 50 0 empty empty RecordL 0 -10 0 10 #191919 #e1e1e1 #e1e1e1;
#X obj 348 388 dac~;
#X obj 348 290 tabread~ samplerL;
#X obj 348 230 phasor~, f 9;
#X obj 227 161 nbx 3 17 -1e+37 1e+37 0 0 empty empty SpeedL 0 -8 0 10 #191919 #e1e1e1 #e1e1e1 0 256;
#X obj 348 258 *~ 96000;
#X obj 7 -17 playhead;
#N canvas 0 0 450 250 (subpatch) 0;
#X array samplerR 96000 float 4;
#X coords 0 1 95999 -1 216 28 1;
#X restore 100 98 graph;
#X obj 180 -17 unpack f f f, f 22;
#X obj 348 -45 nbx 4 15 -1e+37 1e+37 0 0 empty empty empty 0 -8 0 10 #e4e4e4 #5a5a5a #5a5a5a 0 256;
#X obj 7 98 bng 25 250 50 0 empty empty RecordR 0 -10 0 10 #191919 #e1e1e1 #e1e1e1;
#X obj 480 230 phasor~, f 9;
#X obj 272 161 nbx 3 17 -1e+37 1e+37 0 0 empty empty SpeedR 0 -8 0 10 #191919 #e1e1e1 #e1e1e1 0 256;
#X obj 480 258 *~ 96000;
#X obj 480 63 tabwrite~ samplerR;
#X obj 480 290 tabread~ samplerR;
#X obj 480 321 *~;
#X obj 348 321 *~;
#X obj 348 154 adc~;
#X obj 390 186 *~;
#X obj 348 186 *~;
#X obj 346 -17 mod 10;
#X obj 7 18 nbx 4 18 -1e+37 1e+37 0 0 empty empty empty 0 -8 0 10 #191919 #e1e1e1 #e1e1e1 0 256;
#X obj 418 -17 select 0;
#X obj 153 18 hradio 18 1 0 9 empty empty 10\ Step\ Indicator 0 -10 0 10 #191919 #e1e1e1 #e1e1e1 0;
#X obj 7 258 scope~ 308 75 2 3 128 -1 1 0 0 0 0 225 225 225 25 25 25 105 105 105 0 empty;
#X obj 16 161 hsl 206 17 -1 1 0 0 empty empty Playback\ Speed -2 -8 0 10 #191919 #e1e1e1 #e1e1e1 0 1;
#X obj 272 350 nbx 4 17 -1e+37 1e+37 0 0 empty empty empty 0 -8 0 10 #191919 #e1e1e1 #e1e1e1 0 256;
#X msg 515 106 0.5, f 3;
#X msg 418 106 -0.5, f 3;
#X msg 356 106 -1;
#X obj 68 18 nbx 4 18 0 10 0 0 empty empty Length\ in\ Steps 0 -10 0 10 #191919 #e1e1e1 #e1e1e1 0 256;
#N canvas 0 0 450 250 (subpatch) 1;
#X coords 0 1 100 -1 308 15 1 0 0;
#X restore 7 129 graph;
#X obj 6 197 bng 25 250 50 0 empty empty -1 9 -10 0 10 #191919 #e1e1e1 #e1e1e1;
#X msg 386 106 -0.75, f 3;
#X obj 35 197 bng 25 250 50 0 empty empty -0.75 0 -10 0 10 #191919 #e1e1e1 #e1e1e1;
#X obj 67 197 bng 25 250 50 0 empty empty -0.5 0 -10 0 10 #191919 #e1e1e1 #e1e1e1;
#X obj 100 197 bng 25 250 50 0 empty empty -0.25 0 -10 0 10 #191919 #e1e1e1 #e1e1e1;
#X msg 450 106 -0.25, f 3;
#X obj 186 197 bng 25 250 50 0 empty empty 0.25 0 -10 0 10 #191919 #e1e1e1 #e1e1e1;
#X msg 483 106 0.25, f 3;
#X obj 219 197 bng 25 250 50 0 empty empty 0.5 0 -10 0 10 #191919 #e1e1e1 #e1e1e1;
#X msg 547 106 0.75, f 3;
#X obj 252 197 bng 25 250 50 0 empty empty 0.75 0 -10 0 10 #191919 #e1e1e1 #e1e1e1;
#X obj 284 197 bng 25 250 50 0 empty empty 1 0 -10 0 10 #191919 #e1e1e1 #e1e1e1;
#X msg 577 106 1, f 4;
#N canvas 0 0 450 250 (subpatch) 1;
#X coords 0 1 100 -1 308 15 1 0 0;
#X restore 7 234 graph;
#X obj 13 350 hsl 252 17 0 0.5 0 0 empty empty Sampler\ Volume -2 -8 0 10 #191919 #e1e1e1 #e1e1e1 0 1;
#X obj 272 383 nbx 4 17 -1e+37 1e+37 0 0 empty empty empty 0 -8 0 10 #191919 #e1e1e1 #e1e1e1 0 256;
#X obj 13 383 hsl 252 17 0 0.5 0 0 empty empty Dry\ Volume -2 -8 0 10 #191919 #e1e1e1 #e1e1e1 0 1;
#X obj 51 44 vu 19 80 empty empty -1 -8 0 10 #191919 #e1e1e1 0 0;
#X obj 418 18 vu~;
#X obj 75 44 vu 19 80 empty empty -1 -8 0 10 #191919 #e1e1e1 0 0;
#X obj 463 18 vu~;
#X text 522 3 live-sampler~ \; Nikola Mihaylov \, 2024;
#X connect 0 0 2 0;
#X connect 0 0 54 0;
#X connect 0 1 17 0;
#X connect 0 1 56 0;
#X connect 3 0 2 0;
#X connect 5 0 20 0;
#X connect 6 0 8 0;
#X connect 7 0 6 0;
#X connect 8 0 5 0;
#X connect 9 8 11 0;
#X connect 11 0 12 0;
#X connect 12 0 24 0;
#X connect 13 0 17 0;
#X connect 14 0 16 0;
#X connect 15 0 14 0;
#X connect 16 0 18 0;
#X connect 18 0 19 0;
#X connect 19 0 4 1;
#X connect 19 0 28 0;
#X connect 20 0 4 0;
#X connect 20 0 28 0;
#X connect 21 0 23 0;
#X connect 21 1 22 0;
#X connect 22 0 4 1;
#X connect 22 0 28 0;
#X connect 23 0 4 0;
#X connect 23 0 28 0;
#X connect 24 0 25 0;
#X connect 24 0 26 0;
#X connect 24 0 27 0;
#X connect 26 0 13 0;
#X connect 26 0 3 0;
#X connect 29 0 7 0;
#X connect 29 0 15 0;
#X connect 31 0 29 0;
#X connect 32 0 29 0;
#X connect 33 0 29 0;
#X connect 34 0 24 1;
#X connect 36 0 33 0;
#X connect 37 0 7 0;
#X connect 37 0 15 0;
#X connect 38 0 37 0;
#X connect 39 0 32 0;
#X connect 40 0 41 0;
#X connect 41 0 7 0;
#X connect 41 0 15 0;
#X connect 42 0 43 0;
#X connect 43 0 7 0;
#X connect 43 0 15 0;
#X connect 44 0 31 0;
#X connect 45 0 29 0;
#X connect 46 0 45 0;
#X connect 47 0 48 0;
#X connect 48 0 29 0;
#X connect 50 0 30 0;
#X connect 50 0 20 1;
#X connect 50 0 19 1;
#X connect 52 0 51 0;
#X connect 52 0 22 1;
#X connect 52 0 23 1;
#X connect 54 0 53 0;
#X connect 54 1 53 1;
#X connect 56 0 55 0;
#X connect 56 1 55 1;
#X coords 0 0 1 1 785 350 0;
